<?xml version="1.0" encoding="utf-8"?><svg xmlns="http://www.w3.org/2000/svg" xmlns:xlink="http://www.w3.org/1999/xlink" width="1366" height="625" preserveAspectRatio="xMidYMid" viewBox="0 0 1366 625" style="z-index:1;margin-right:-2px;display:block;background-repeat-y:initial;background-repeat-x:initial;background-color:rgb(241, 242, 243);animation-play-state:paused" ><g transform="translate(683,312.5) scale(1,1) translate(-683,-312.5)" style="transform:matrix(1, 0, 0, 1, 0, 0);animation-play-state:paused" ><g id="bk-0.8279893624814776" style="animation-play-state:paused" ><path d="M 726 339 L 625 377 L 701 462 Z" stroke="#28db8d" fill="#28db8d" style="animation-play-state:paused" ></path>
<path d="M 625 377 L 616 453 L 701 462 Z" stroke="#00da96" fill="#00da96" style="animation-play-state:paused" ></path>
<path d="M 808 548 L 796 439 L 701 462 Z" stroke="#00c9d8" fill="#00c9d8" style="animation-play-state:paused" ></path>
<path d="M 701 462 L 796 439 L 726 339 Z" stroke="#00d6ad" fill="#00d6ad" style="animation-play-state:paused" ></path>
<path d="M 796 439 L 797 347 L 726 339 Z" stroke="#00d8a0" fill="#00d8a0" style="animation-play-state:paused" ></path>
<path d="M 797 347 L 714 262 L 726 339 Z" stroke="#6fde71" fill="#6fde71" style="animation-play-state:paused" ></path>
<path d="M 726 339 L 633 261 L 625 377 Z" stroke="#92de60" fill="#92de60" style="animation-play-state:paused" ></path>
<path d="M 616 453 L 705 552 L 701 462 Z" stroke="#00d2be" fill="#00d2be" style="animation-play-state:paused" ></path>
<path d="M 714 262 L 633 261 L 726 339 Z" stroke="#9cdc5a" fill="#9cdc5a" style="animation-play-state:paused" ></path>
<path d="M 524 470 L 624 564 L 616 453 Z" stroke="#00d8a1" fill="#00d8a1" style="animation-play-state:paused" ></path>
<path d="M 524 470 L 616 453 L 625 377 Z" stroke="#4adc82" fill="#4adc82" style="animation-play-state:paused" ></path>
<path d="M 616 453 L 624 564 L 705 552 Z" stroke="#00d0c4" fill="#00d0c4" style="animation-play-state:paused" ></path>
<path d="M 633 261 L 510 352 L 625 377 Z" stroke="#9ada5b" fill="#9ada5b" style="animation-play-state:paused" ></path>
<path d="M 510 352 L 524 470 L 625 377 Z" stroke="#86de66" fill="#86de66" style="animation-play-state:paused" ></path>
<path d="M 730 653 L 808 548 L 705 552 Z" stroke="#00bbf0" fill="#00bbf0" style="animation-play-state:paused" ></path>
<path d="M 705 552 L 808 548 L 701 462 Z" stroke="#00c7de" fill="#00c7de" style="animation-play-state:paused" ></path>
<path d="M 906 261 L 811 250 L 797 347 Z" stroke="#63dd77" fill="#63dd77" style="animation-play-state:paused" ></path>
<path d="M 797 347 L 811 250 L 714 262 Z" stroke="#84de67" fill="#84de67" style="animation-play-state:paused" ></path>
<path d="M 714 262 L 740 180 L 633 261 Z" stroke="#8bd05f" fill="#8bd05f" style="animation-play-state:paused" ></path>
<path d="M 431 459 L 516 542 L 524 470 Z" stroke="#5fdd79" fill="#5fdd79" style="animation-play-state:paused" ></path>
<path d="M 524 470 L 516 542 L 624 564 Z" stroke="#00d8a1" fill="#00d8a1" style="animation-play-state:paused" ></path>
<path d="M 624 564 L 605 668 L 705 552 Z" stroke="#00c8da" fill="#00c8da" style="animation-play-state:paused" ></path>
<path d="M 605 149 L 499 261 L 633 261 Z" stroke="#79c163" fill="#79c163" style="animation-play-state:paused" ></path>
<path d="M 633 261 L 499 261 L 510 352 Z" stroke="#87cd60" fill="#87cd60" style="animation-play-state:paused" ></path>
<path d="M 510 352 L 434 367 L 524 470 Z" stroke="#9bdb5a" fill="#9bdb5a" style="animation-play-state:paused" ></path>
<path d="M 808 548 L 898 444 L 796 439 Z" stroke="#00c3e6" fill="#00c3e6" style="animation-play-state:paused" ></path>
<path d="M 796 439 L 929 368 L 797 347 Z" stroke="#00d2bb" fill="#00d2bb" style="animation-play-state:paused" ></path>
<path d="M 811 250 L 740 180 L 714 262 Z" stroke="#92d55d" fill="#92d55d" style="animation-play-state:paused" ></path>
<path d="M 898 444 L 929 368 L 796 439 Z" stroke="#00cad6" fill="#00cad6" style="animation-play-state:paused" ></path>
<path d="M 811 250 L 819 179 L 740 180 Z" stroke="#8dd15e" fill="#8dd15e" style="animation-play-state:paused" ></path>
<path d="M 415 261 L 434 367 L 510 352 Z" stroke="#83c961" fill="#83c961" style="animation-play-state:paused" ></path>
<path d="M 740 180 L 605 149 L 633 261 Z" stroke="#7bc362" fill="#7bc362" style="animation-play-state:paused" ></path>
<path d="M 516 542 L 605 668 L 624 564 Z" stroke="#00d0c4" fill="#00d0c4" style="animation-play-state:paused" ></path>
<path d="M 434 367 L 431 459 L 524 470 Z" stroke="#9fde59" fill="#9fde59" style="animation-play-state:paused" ></path>
<path d="M 605 668 L 730 653 L 705 552 Z" stroke="#00c0e9" fill="#00c0e9" style="animation-play-state:paused" ></path>
<path d="M 808 548 L 914 557 L 898 444 Z" stroke="#00b5f5" fill="#00b5f5" style="animation-play-state:paused" ></path>
<path d="M 817 658 L 914 557 L 808 548 Z" stroke="#00aaf7" fill="#00aaf7" style="animation-play-state:paused" ></path>
<path d="M 898 444 L 1020 365 L 929 368 Z" stroke="#00c8db" fill="#00c8db" style="animation-play-state:paused" ></path>
<path d="M 929 368 L 906 261 L 797 347 Z" stroke="#00d99e" fill="#00d99e" style="animation-play-state:paused" ></path>
<path d="M 906 261 L 819 179 L 811 250 Z" stroke="#9edd5a" fill="#9edd5a" style="animation-play-state:paused" ></path>
<path d="M 740 180 L 643 75 L 605 149 Z" stroke="#6ab465" fill="#6ab465" style="animation-play-state:paused" ></path>
<path d="M 421 177 L 415 261 L 499 261 Z" stroke="#6bb565" fill="#6bb565" style="animation-play-state:paused" ></path>
<path d="M 499 261 L 415 261 L 510 352 Z" stroke="#7dc562" fill="#7dc562" style="animation-play-state:paused" ></path>
<path d="M 333 458 L 409 555 L 431 459 Z" stroke="#9fdd59" fill="#9fdd59" style="animation-play-state:paused" ></path>
<path d="M 605 149 L 501 147 L 499 261 Z" stroke="#6ab465" fill="#6ab465" style="animation-play-state:paused" ></path>
<path d="M 431 459 L 409 555 L 516 542 Z" stroke="#66dd76" fill="#66dd76" style="animation-play-state:paused" ></path>
<path d="M 516 542 L 548 676 L 605 668 Z" stroke="#00d0c5" fill="#00d0c5" style="animation-play-state:paused" ></path>
<path d="M 343 356 L 431 459 L 434 367 Z" stroke="#8bd05f" fill="#8bd05f" style="animation-play-state:paused" ></path>
<path d="M 427 673 L 548 676 L 516 542 Z" stroke="#00d6ae" fill="#00d6ae" style="animation-play-state:paused" ></path>
<path d="M 633 774 L 730 752 L 730 653 Z" stroke="#00b4f5" fill="#00b4f5" style="animation-play-state:paused" ></path>
<path d="M 730 752 L 817 658 L 730 653 Z" stroke="#00abf7" fill="#00abf7" style="animation-play-state:paused" ></path>
<path d="M 730 653 L 817 658 L 808 548 Z" stroke="#00aff7" fill="#00aff7" style="animation-play-state:paused" ></path>
<path d="M 743 82 L 643 75 L 740 180 Z" stroke="#69b265" fill="#69b265" style="animation-play-state:paused" ></path>
<path d="M 605 149 L 643 75 L 501 147 Z" stroke="#61a966" fill="#61a966" style="animation-play-state:paused" ></path>
<path d="M 817 80 L 743 82 L 740 180 Z" stroke="#6eb865" fill="#6eb865" style="animation-play-state:paused" ></path>
<path d="M 906 261 L 916 162 L 819 179 Z" stroke="#97d85c" fill="#97d85c" style="animation-play-state:paused" ></path>
<path d="M 819 179 L 817 80 L 740 180 Z" stroke="#7ac262" fill="#7ac262" style="animation-play-state:paused" ></path>
<path d="M 1042 257 L 916 162 L 906 261 Z" stroke="#7ede6a" fill="#7ede6a" style="animation-play-state:paused" ></path>
<path d="M 1042 257 L 906 261 L 929 368 Z" stroke="#00d99e" fill="#00d99e" style="animation-play-state:paused" ></path>
<path d="M 501 147 L 421 177 L 499 261 Z" stroke="#66af66" fill="#66af66" style="animation-play-state:paused" ></path>
<path d="M 412 64 L 421 177 L 501 147 Z" stroke="#589c66" fill="#589c66" style="animation-play-state:paused" ></path>
<path d="M 302 242 L 343 356 L 415 261 Z" stroke="#6cb565" fill="#6cb565" style="animation-play-state:paused" ></path>
<path d="M 415 261 L 343 356 L 434 367 Z" stroke="#7bc362" fill="#7bc362" style="animation-play-state:paused" ></path>
<path d="M 1039 462 L 1020 365 L 898 444 Z" stroke="#00bdee" fill="#00bdee" style="animation-play-state:paused" ></path>
<path d="M 343 356 L 333 458 L 431 459 Z" stroke="#8cd05e" fill="#8cd05e" style="animation-play-state:paused" ></path>
<path d="M 1024 576 L 1039 462 L 914 557 Z" stroke="#569ef3" fill="#569ef3" style="animation-play-state:paused" ></path>
<path d="M 914 557 L 1039 462 L 898 444 Z" stroke="#00b1f6" fill="#00b1f6" style="animation-play-state:paused" ></path>
<path d="M 633 774 L 730 653 L 605 668 Z" stroke="#00bdee" fill="#00bdee" style="animation-play-state:paused" ></path>
<path d="M 321 561 L 427 673 L 409 555 Z" stroke="#67de75" fill="#67de75" style="animation-play-state:paused" ></path>
<path d="M 409 555 L 427 673 L 516 542 Z" stroke="#25db8e" fill="#25db8e" style="animation-play-state:paused" ></path>
<path d="M 548 676 L 633 774 L 605 668 Z" stroke="#00c6e0" fill="#00c6e0" style="animation-play-state:paused" ></path>
<path d="M 916 162 L 817 80 L 819 179 Z" stroke="#7ec662" fill="#7ec662" style="animation-play-state:paused" ></path>
<path d="M 502 746 L 633 774 L 548 676 Z" stroke="#00c9d8" fill="#00c9d8" style="animation-play-state:paused" ></path>
<path d="M 921 774 L 929 682 L 817 658 Z" stroke="#838ee5" fill="#838ee5" style="animation-play-state:paused" ></path>
<path d="M 817 658 L 929 682 L 914 557 Z" stroke="#649af0" fill="#649af0" style="animation-play-state:paused" ></path>
<path d="M 1101 248 L 1042 257 L 1020 365 Z" stroke="#00d5b1" fill="#00d5b1" style="animation-play-state:paused" ></path>
<path d="M 1020 365 L 1042 257 L 929 368 Z" stroke="#00d1c1" fill="#00d1c1" style="animation-play-state:paused" ></path>
<path d="M 916 162 L 907 57 L 817 80 Z" stroke="#74bd64" fill="#74bd64" style="animation-play-state:paused" ></path>
<path d="M 929 682 L 1024 576 L 914 557 Z" stroke="#7a91e9" fill="#7a91e9" style="animation-play-state:paused" ></path>
<path d="M 333 458 L 321 561 L 409 555 Z" stroke="#9edd5a" fill="#9edd5a" style="animation-play-state:paused" ></path>
<path d="M 427 673 L 502 746 L 548 676 Z" stroke="#00d3ba" fill="#00d3ba" style="animation-play-state:paused" ></path>
<path d="M 623 -38 L 511 62 L 643 75 Z" stroke="#529265" fill="#529265" style="animation-play-state:paused" ></path>
<path d="M 643 75 L 511 62 L 501 147 Z" stroke="#599e66" fill="#599e66" style="animation-play-state:paused" ></path>
<path d="M 733 -26 L 643 75 L 743 82 Z" stroke="#5a9f66" fill="#5a9f66" style="animation-play-state:paused" ></path>
<path d="M 330 173 L 415 261 L 421 177 Z" stroke="#60a866" fill="#60a866" style="animation-play-state:paused" ></path>
<path d="M 330 173 L 302 242 L 415 261 Z" stroke="#60a866" fill="#60a866" style="animation-play-state:paused" ></path>
<path d="M 343 356 L 214 371 L 333 458 Z" stroke="#7ac263" fill="#7ac263" style="animation-play-state:paused" ></path>
<path d="M 633 774 L 819 770 L 730 752 Z" stroke="#00acf7" fill="#00acf7" style="animation-play-state:paused" ></path>
<path d="M 730 752 L 819 770 L 817 658 Z" stroke="#48a1f5" fill="#48a1f5" style="animation-play-state:paused" ></path>
<path d="M 1042 257 L 996 139 L 916 162 Z" stroke="#9ddc5a" fill="#9ddc5a" style="animation-play-state:paused" ></path>
<path d="M 996 139 L 907 57 L 916 162 Z" stroke="#7fc761" fill="#7fc761" style="animation-play-state:paused" ></path>
<path d="M 817 80 L 733 -26 L 743 82 Z" stroke="#5da466" fill="#5da466" style="animation-play-state:paused" ></path>
<path d="M 412 64 L 330 173 L 421 177 Z" stroke="#559866" fill="#559866" style="animation-play-state:paused" ></path>
<path d="M 511 62 L 412 64 L 501 147 Z" stroke="#549665" fill="#549665" style="animation-play-state:paused" ></path>
<path d="M 1014 746 L 1027 671 L 929 682 Z" stroke="#a679c8" fill="#a679c8" style="animation-play-state:paused" ></path>
<path d="M 929 682 L 1027 671 L 1024 576 Z" stroke="#9981d6" fill="#9981d6" style="animation-play-state:paused" ></path>
<path d="M 1102 547 L 1137 454 L 1039 462 Z" stroke="#5f9bf2" fill="#5f9bf2" style="animation-play-state:paused" ></path>
<path d="M 808 -25 L 733 -26 L 817 80 Z" stroke="#579c66" fill="#579c66" style="animation-play-state:paused" ></path>
<path d="M 511 62 L 440 -24 L 412 64 Z" stroke="#4c8563" fill="#4c8563" style="animation-play-state:paused" ></path>
<path d="M 427 673 L 407 776 L 502 746 Z" stroke="#00d6ab" fill="#00d6ab" style="animation-play-state:paused" ></path>
<path d="M 502 746 L 407 776 L 633 774 Z" stroke="#00ceca" fill="#00ceca" style="animation-play-state:paused" ></path>
<path d="M 323 745 L 407 776 L 427 673 Z" stroke="#1cdb90" fill="#1cdb90" style="animation-play-state:paused" ></path>
<path d="M 240 584 L 303 656 L 321 561 Z" stroke="#9cdb5a" fill="#9cdb5a" style="animation-play-state:paused" ></path>
<path d="M 321 561 L 303 656 L 427 673 Z" stroke="#73de6f" fill="#73de6f" style="animation-play-state:paused" ></path>
<path d="M 240 584 L 321 561 L 333 458 Z" stroke="#94d65c" fill="#94d65c" style="animation-play-state:paused" ></path>
<path d="M 819 770 L 921 774 L 817 658 Z" stroke="#7793eb" fill="#7793eb" style="animation-play-state:paused" ></path>
<path d="M 733 -26 L 623 -38 L 643 75 Z" stroke="#519065" fill="#519065" style="animation-play-state:paused" ></path>
<path d="M 1102 547 L 1039 462 L 1024 576 Z" stroke="#7494ec" fill="#7494ec" style="animation-play-state:paused" ></path>
<path d="M 1039 462 L 1137 454 L 1020 365 Z" stroke="#00b3f6" fill="#00b3f6" style="animation-play-state:paused" ></path>
<path d="M 1042 257 L 1133 155 L 996 139 Z" stroke="#93de5f" fill="#93de5f" style="animation-play-state:paused" ></path>
<path d="M 241 263 L 343 356 L 302 242 Z" stroke="#65ae66" fill="#65ae66" style="animation-play-state:paused" ></path>
<path d="M 241 263 L 214 371 L 343 356 Z" stroke="#69b365" fill="#69b365" style="animation-play-state:paused" ></path>
<path d="M 1027 671 L 1102 547 L 1024 576 Z" stroke="#9b81d5" fill="#9b81d5" style="animation-play-state:paused" ></path>
<path d="M 1137 454 L 1143 362 L 1020 365 Z" stroke="#00b9f2" fill="#00b9f2" style="animation-play-state:paused" ></path>
<path d="M 1143 362 L 1101 248 L 1020 365 Z" stroke="#00ccd1" fill="#00ccd1" style="animation-play-state:paused" ></path>
<path d="M 996 139 L 1028 55 L 907 57 Z" stroke="#76bf63" fill="#76bf63" style="animation-play-state:paused" ></path>
<path d="M 907 57 L 808 -25 L 817 80 Z" stroke="#60a866" fill="#60a866" style="animation-play-state:paused" ></path>
<path d="M 733 -26 L 727 -147 L 623 -38 Z" stroke="#4a7d61" fill="#4a7d61" style="animation-play-state:paused" ></path>
<path d="M 948 -26 L 808 -25 L 907 57 Z" stroke="#5ba166" fill="#5ba166" style="animation-play-state:paused" ></path>
<path d="M 221 160 L 241 263 L 302 242 Z" stroke="#579c66" fill="#579c66" style="animation-play-state:paused" ></path>
<path d="M 221 160 L 302 242 L 330 173 Z" stroke="#569966" fill="#569966" style="animation-play-state:paused" ></path>
<path d="M 118 458 L 207 438 L 114 364 Z" stroke="#68b165" fill="#68b165" style="animation-play-state:paused" ></path>
<path d="M 214 371 L 207 438 L 333 458 Z" stroke="#78c063" fill="#78c063" style="animation-play-state:paused" ></path>
<path d="M 207 438 L 240 584 L 333 458 Z" stroke="#86cc60" fill="#86cc60" style="animation-play-state:paused" ></path>
<path d="M 623 -38 L 510 -51 L 511 62 Z" stroke="#4b8262" fill="#4b8262" style="animation-play-state:paused" ></path>
<path d="M 412 64 L 332 65 L 330 173 Z" stroke="#4f8c64" fill="#4f8c64" style="animation-play-state:paused" ></path>
<path d="M 521 -121 L 510 -51 L 623 -38 Z" stroke="#47715d" fill="#47715d" style="animation-play-state:paused" ></path>
<path d="M 1133 155 L 1028 55 L 996 139 Z" stroke="#88ce5f" fill="#88ce5f" style="animation-play-state:paused" ></path>
<path d="M 921 774 L 1014 746 L 929 682 Z" stroke="#a17ccd" fill="#a17ccd" style="animation-play-state:paused" ></path>
<path d="M 1027 671 L 1124 672 L 1102 547 Z" stroke="#a874c1" fill="#a874c1" style="animation-play-state:paused" ></path>
<path d="M 440 -24 L 332 65 L 412 64 Z" stroke="#4a7f61" fill="#4a7f61" style="animation-play-state:paused" ></path>
<path d="M 510 -51 L 440 -24 L 511 62 Z" stroke="#4a7e61" fill="#4a7e61" style="animation-play-state:paused" ></path>
<path d="M 1028 55 L 948 -26 L 907 57 Z" stroke="#65ae66" fill="#65ae66" style="animation-play-state:paused" ></path>
<path d="M 242 682 L 323 745 L 303 656 Z" stroke="#8bde63" fill="#8bde63" style="animation-play-state:paused" ></path>
<path d="M 303 656 L 323 745 L 427 673 Z" stroke="#5add7c" fill="#5add7c" style="animation-play-state:paused" ></path>
<path d="M 1229 149 L 1133 155 L 1101 248 Z" stroke="#74de6f" fill="#74de6f" style="animation-play-state:paused" ></path>
<path d="M 1101 248 L 1133 155 L 1042 257 Z" stroke="#4edd81" fill="#4edd81" style="animation-play-state:paused" ></path>
<path d="M 1028 55 L 1026 -40 L 948 -26 Z" stroke="#5fa766" fill="#5fa766" style="animation-play-state:paused" ></path>
<path d="M 332 65 L 221 160 L 330 173 Z" stroke="#4f8c64" fill="#4f8c64" style="animation-play-state:paused" ></path>
<path d="M 114 364 L 207 438 L 214 371 Z" stroke="#68b165" fill="#68b165" style="animation-play-state:paused" ></path>
<path d="M 119 654 L 242 682 L 240 584 Z" stroke="#8ed25e" fill="#8ed25e" style="animation-play-state:paused" ></path>
<path d="M 240 584 L 242 682 L 303 656 Z" stroke="#9bdb5a" fill="#9bdb5a" style="animation-play-state:paused" ></path>
<path d="M 1113 764 L 1124 672 L 1027 671 Z" stroke="#a16db7" fill="#a16db7" style="animation-play-state:paused" ></path>
<path d="M 1102 547 L 1215 438 L 1137 454 Z" stroke="#7096ed" fill="#7096ed" style="animation-play-state:paused" ></path>
<path d="M 1137 454 L 1215 438 L 1143 362 Z" stroke="#00aaf7" fill="#00aaf7" style="animation-play-state:paused" ></path>
<path d="M 1229 583 L 1215 438 L 1102 547 Z" stroke="#9982d6" fill="#9982d6" style="animation-play-state:paused" ></path>
<path d="M 1143 362 L 1225 255 L 1101 248 Z" stroke="#00d0c4" fill="#00d0c4" style="animation-play-state:paused" ></path>
<path d="M 814 -136 L 727 -147 L 808 -25 Z" stroke="#497a60" fill="#497a60" style="animation-play-state:paused" ></path>
<path d="M 808 -25 L 727 -147 L 733 -26 Z" stroke="#4c8362" fill="#4c8362" style="animation-play-state:paused" ></path>
<path d="M 510 -51 L 400 -149 L 440 -24 Z" stroke="#476f5b" fill="#476f5b" style="animation-play-state:paused" ></path>
<path d="M 1215 438 L 1235 370 L 1143 362 Z" stroke="#00b1f6" fill="#00b1f6" style="animation-play-state:paused" ></path>
<path d="M 611 -163 L 521 -121 L 623 -38 Z" stroke="#466c5a" fill="#466c5a" style="animation-play-state:paused" ></path>
<path d="M 231 -17 L 217 62 L 332 65 Z" stroke="#47715d" fill="#47715d" style="animation-play-state:paused" ></path>
<path d="M 114 364 L 214 371 L 241 263 Z" stroke="#61a966" fill="#61a966" style="animation-play-state:paused" ></path>
<path d="M 207 438 L 118 458 L 240 584 Z" stroke="#79c263" fill="#79c263" style="animation-play-state:paused" ></path>
<path d="M 105 270 L 114 364 L 241 263 Z" stroke="#599e66" fill="#599e66" style="animation-play-state:paused" ></path>
<path d="M 727 -147 L 611 -163 L 623 -38 Z" stroke="#466d5b" fill="#466d5b" style="animation-play-state:paused" ></path>
<path d="M 924 -130 L 814 -136 L 808 -25 Z" stroke="#4b8161" fill="#4b8161" style="animation-play-state:paused" ></path>
<path d="M 727 -147 L 814 -136 L 611 -163 Z" stroke="#466e5b" fill="#466e5b" style="animation-play-state:paused" ></path>
<path d="M 924 -130 L 808 -25 L 948 -26 Z" stroke="#508f64" fill="#508f64" style="animation-play-state:paused" ></path>
<path d="M 1235 370 L 1225 255 L 1143 362 Z" stroke="#00c3e4" fill="#00c3e4" style="animation-play-state:paused" ></path>
<path d="M 1119 -49 L 1026 -40 L 1028 55 Z" stroke="#60a866" fill="#60a866" style="animation-play-state:paused" ></path>
<path d="M 1141 57 L 1028 55 L 1133 155 Z" stroke="#81c861" fill="#81c861" style="animation-play-state:paused" ></path>
<path d="M 1229 149 L 1141 57 L 1133 155 Z" stroke="#93d55d" fill="#93d55d" style="animation-play-state:paused" ></path>
<path d="M 921 774 L 1113 764 L 1014 746 Z" stroke="#a571bd" fill="#a571bd" style="animation-play-state:paused" ></path>
<path d="M 1014 746 L 1113 764 L 1027 671 Z" stroke="#a36fba" fill="#a36fba" style="animation-play-state:paused" ></path>
<path d="M 1206 636 L 1229 583 L 1102 547 Z" stroke="#a571bd" fill="#a571bd" style="animation-play-state:paused" ></path>
<path d="M 1330 751 L 1113 764 L 921 774 Z" stroke="#9a66ae" fill="#9a66ae" style="animation-play-state:paused" ></path>
<path d="M 332 65 L 217 62 L 221 160 Z" stroke="#4a7f61" fill="#4a7f61" style="animation-play-state:paused" ></path>
<path d="M 221 160 L 105 270 L 241 263 Z" stroke="#549565" fill="#549565" style="animation-play-state:paused" ></path>
<path d="M 310 -35 L 332 65 L 440 -24 Z" stroke="#47735d" fill="#47735d" style="animation-play-state:paused" ></path>
<path d="M 134 764 L 240 783 L 242 682 Z" stroke="#96d85c" fill="#96d85c" style="animation-play-state:paused" ></path>
<path d="M 242 682 L 240 783 L 323 745 Z" stroke="#92de60" fill="#92de60" style="animation-play-state:paused" ></path>
<path d="M 323 745 L 240 783 L 407 776 Z" stroke="#62dd78" fill="#62dd78" style="animation-play-state:paused" ></path>
<path d="M 407 776 L 240 783 L 633 774 Z" stroke="#00d7a6" fill="#00d7a6" style="animation-play-state:paused" ></path>
<path d="M 633 774 L 240 783 L 819 770 Z" stroke="#00c8dc" fill="#00c8dc" style="animation-play-state:paused" ></path>
<path d="M 134 155 L 105 270 L 221 160 Z" stroke="#4e8964" fill="#4e8964" style="animation-play-state:paused" ></path>
<path d="M 17 474 L 132 547 L 118 458 Z" stroke="#6ab365" fill="#6ab365" style="animation-play-state:paused" ></path>
<path d="M 118 458 L 132 547 L 240 584 Z" stroke="#7ac263" fill="#7ac263" style="animation-play-state:paused" ></path>
<path d="M 17 474 L 118 458 L 114 364 Z" stroke="#62aa66" fill="#62aa66" style="animation-play-state:paused" ></path>
<path d="M 1206 636 L 1102 547 L 1124 672 Z" stroke="#a470bc" fill="#a470bc" style="animation-play-state:paused" ></path>
<path d="M 1323 464 L 1335 369 L 1235 370 Z" stroke="#41a3f6" fill="#41a3f6" style="animation-play-state:paused" ></path>
<path d="M 400 -149 L 310 -35 L 440 -24 Z" stroke="#48735b" fill="#48735b" style="animation-play-state:paused" ></path>
<path d="M 1209 764 L 1206 636 L 1124 672 Z" stroke="#9965ad" fill="#9965ad" style="animation-play-state:paused" ></path>
<path d="M 1026 -40 L 924 -130 L 948 -26 Z" stroke="#529265" fill="#529265" style="animation-play-state:paused" ></path>
<path d="M 814 -136 L 1018 -137 L 611 -163 Z" stroke="#476f5c" fill="#476f5c" style="animation-play-state:paused" ></path>
<path d="M 1018 -137 L 924 -130 L 1026 -40 Z" stroke="#4d8863" fill="#4d8863" style="animation-play-state:paused" ></path>
<path d="M 1225 255 L 1229 149 L 1101 248 Z" stroke="#1edb90" fill="#1edb90" style="animation-play-state:paused" ></path>
<path d="M 118 68 L 221 160 L 217 62 Z" stroke="#48775f" fill="#48775f" style="animation-play-state:paused" ></path>
<path d="M 118 68 L 134 155 L 221 160 Z" stroke="#497b60" fill="#497b60" style="animation-play-state:paused" ></path>
<path d="M 132 547 L 119 654 L 240 584 Z" stroke="#82c961" fill="#82c961" style="animation-play-state:paused" ></path>
<path d="M 521 -121 L 400 -149 L 510 -51 Z" stroke="#48755b" fill="#48755b" style="animation-play-state:paused" ></path>
<path d="M 611 -163 L 400 -149 L 521 -121 Z" stroke="#4c7d5b" fill="#4c7d5b" style="animation-play-state:paused" ></path>
<path d="M 310 -35 L 231 -17 L 332 65 Z" stroke="#466c5b" fill="#466c5b" style="animation-play-state:paused" ></path>
<path d="M 234 -120 L 231 -17 L 310 -35 Z" stroke="#4b7c5b" fill="#4b7c5b" style="animation-play-state:paused" ></path>
<path d="M 1206 48 L 1119 -49 L 1141 57 Z" stroke="#6db665" fill="#6db665" style="animation-play-state:paused" ></path>
<path d="M 1141 57 L 1119 -49 L 1028 55 Z" stroke="#6bb465" fill="#6bb465" style="animation-play-state:paused" ></path>
<path d="M 1113 764 L 1209 764 L 1124 672 Z" stroke="#9964ad" fill="#9964ad" style="animation-play-state:paused" ></path>
<path d="M 1315 653 L 1335 550 L 1229 583 Z" stroke="#9c68b0" fill="#9c68b0" style="animation-play-state:paused" ></path>
<path d="M 1328 60 L 1206 48 L 1229 149 Z" stroke="#8acf5f" fill="#8acf5f" style="animation-play-state:paused" ></path>
<path d="M 1229 149 L 1206 48 L 1141 57 Z" stroke="#86cc60" fill="#86cc60" style="animation-play-state:paused" ></path>
<path d="M 1313 266 L 1229 149 L 1225 255 Z" stroke="#00d8a0" fill="#00d8a0" style="animation-play-state:paused" ></path>
<path d="M 1313 266 L 1225 255 L 1235 370 Z" stroke="#00c9d9" fill="#00c9d9" style="animation-play-state:paused" ></path>
<path d="M 1119 -49 L 1018 -137 L 1026 -40 Z" stroke="#539465" fill="#539465" style="animation-play-state:paused" ></path>
<path d="M 924 -130 L 1018 -137 L 814 -136 Z" stroke="#49795f" fill="#49795f" style="animation-play-state:paused" ></path>
<path d="M 231 -17 L 118 68 L 217 62 Z" stroke="#466c5a" fill="#466c5a" style="animation-play-state:paused" ></path>
<path d="M 34 282 L 114 364 L 105 270 Z" stroke="#549665" fill="#549665" style="animation-play-state:paused" ></path>
<path d="M 1323 464 L 1215 438 L 1229 583 Z" stroke="#9982d6" fill="#9982d6" style="animation-play-state:paused" ></path>
<path d="M 1323 464 L 1235 370 L 1215 438 Z" stroke="#579ef3" fill="#579ef3" style="animation-play-state:paused" ></path>
<path d="M 1335 550 L 1323 464 L 1229 583 Z" stroke="#a672be" fill="#a672be" style="animation-play-state:paused" ></path>
<path d="M 1335 369 L 1313 266 L 1235 370 Z" stroke="#00bbef" fill="#00bbef" style="animation-play-state:paused" ></path>
<path d="M 34 282 L 105 270 L 32 163 Z" stroke="#4d8663" fill="#4d8663" style="animation-play-state:paused" ></path>
<path d="M 34 282 L 11 366 L 114 364 Z" stroke="#559766" fill="#559766" style="animation-play-state:paused" ></path>
<path d="M 132 547 L 36 564 L 119 654 Z" stroke="#75be63" fill="#75be63" style="animation-play-state:paused" ></path>
<path d="M 11 366 L 17 474 L 114 364 Z" stroke="#5ba166" fill="#5ba166" style="animation-play-state:paused" ></path>
<path d="M 32 163 L 105 270 L 134 155 Z" stroke="#4b8262" fill="#4b8262" style="animation-play-state:paused" ></path>
<path d="M 400 -149 L 299 -132 L 310 -35 Z" stroke="#4e815a" fill="#4e815a" style="animation-play-state:paused" ></path>
<path d="M 231 -17 L 128 -42 L 118 68 Z" stroke="#49785b" fill="#49785b" style="animation-play-state:paused" ></path>
<path d="M 25 678 L 134 764 L 119 654 Z" stroke="#7dc562" fill="#7dc562" style="animation-play-state:paused" ></path>
<path d="M 119 654 L 134 764 L 242 682 Z" stroke="#8bd05f" fill="#8bd05f" style="animation-play-state:paused" ></path>
<path d="M 1315 653 L 1229 583 L 1206 636 Z" stroke="#9b66af" fill="#9b66af" style="animation-play-state:paused" ></path>
<path d="M -63 470 L 36 564 L 17 474 Z" stroke="#5fa766" fill="#5fa766" style="animation-play-state:paused" ></path>
<path d="M 17 474 L 36 564 L 132 547 Z" stroke="#6ab365" fill="#6ab365" style="animation-play-state:paused" ></path>
<path d="M 1209 764 L 1315 653 L 1206 636 Z" stroke="#945fa6" fill="#945fa6" style="animation-play-state:paused" ></path>
<path d="M 1412 252 L 1315 171 L 1313 266 Z" stroke="#00d5b2" fill="#00d5b2" style="animation-play-state:paused" ></path>
<path d="M 1313 266 L 1315 171 L 1229 149 Z" stroke="#2ddb8c" fill="#2ddb8c" style="animation-play-state:paused" ></path>
<path d="M 1214 -54 L 1136 -113 L 1119 -49 Z" stroke="#569a66" fill="#569a66" style="animation-play-state:paused" ></path>
<path d="M 1119 -49 L 1136 -113 L 1018 -137 Z" stroke="#508e64" fill="#508e64" style="animation-play-state:paused" ></path>
<path d="M 1412 252 L 1313 266 L 1335 369 Z" stroke="#00c4e3" fill="#00c4e3" style="animation-play-state:paused" ></path>
<path d="M 36 564 L 25 678 L 119 654 Z" stroke="#73bc64" fill="#73bc64" style="animation-play-state:paused" ></path>
<path d="M 39 63 L 134 155 L 118 68 Z" stroke="#466d5b" fill="#466d5b" style="animation-play-state:paused" ></path>
<path d="M 39 63 L 32 163 L 134 155 Z" stroke="#47705c" fill="#47705c" style="animation-play-state:paused" ></path>
<path d="M -84 360 L -63 470 L 11 366 Z" stroke="#529365" fill="#529365" style="animation-play-state:paused" ></path>
<path d="M 11 366 L -63 470 L 17 474 Z" stroke="#589d66" fill="#589d66" style="animation-play-state:paused" ></path>
<path d="M 299 -132 L 234 -120 L 310 -35 Z" stroke="#508459" fill="#508459" style="animation-play-state:paused" ></path>
<path d="M 1214 -54 L 1119 -49 L 1206 48 Z" stroke="#63ac66" fill="#63ac66" style="animation-play-state:paused" ></path>
<path d="M 1328 60 L 1214 -54 L 1206 48 Z" stroke="#71ba64" fill="#71ba64" style="animation-play-state:paused" ></path>
<path d="M 234 -120 L 128 -42 L 231 -17 Z" stroke="#508359" fill="#508359" style="animation-play-state:paused" ></path>
<path d="M 1315 171 L 1328 60 L 1229 149 Z" stroke="#9edd5a" fill="#9edd5a" style="animation-play-state:paused" ></path>
<path d="M 128 -42 L 39 63 L 118 68 Z" stroke="#4a795b" fill="#4a795b" style="animation-play-state:paused" ></path>
<path d="M 1426 561 L 1405 443 L 1323 464 Z" stroke="#a976c3" fill="#a976c3" style="animation-play-state:paused" ></path>
<path d="M 1323 464 L 1405 443 L 1335 369 Z" stroke="#7594ec" fill="#7594ec" style="animation-play-state:paused" ></path>
<path d="M 1315 171 L 1427 70 L 1328 60 Z" stroke="#96d85c" fill="#96d85c" style="animation-play-state:paused" ></path>
<path d="M 1426 561 L 1323 464 L 1335 550 Z" stroke="#a370bb" fill="#a370bb" style="animation-play-state:paused" ></path>
<path d="M 1209 764 L 1330 751 L 1315 653 Z" stroke="#8c589c" fill="#8c589c" style="animation-play-state:paused" ></path>
<path d="M 1433 670 L 1426 561 L 1335 550 Z" stroke="#9561a8" fill="#9561a8" style="animation-play-state:paused" ></path>
<path d="M 1113 764 L 1330 751 L 1209 764 Z" stroke="#915ca2" fill="#915ca2" style="animation-play-state:paused" ></path>
<path d="M 819 770 L 1330 751 L 921 774 Z" stroke="#a470bc" fill="#a470bc" style="animation-play-state:paused" ></path>
<path d="M -84 360 L 11 366 L 34 282 Z" stroke="#508e64" fill="#508e64" style="animation-play-state:paused" ></path>
<path d="M 36 564 L -74 667 L 25 678 Z" stroke="#69b365" fill="#69b365" style="animation-play-state:paused" ></path>
<path d="M -84 360 L 34 282 L -83 248 Z" stroke="#4c8362" fill="#4c8362" style="animation-play-state:paused" ></path>
<path d="M -74 667 L 1 766 L 25 678 Z" stroke="#6bb465" fill="#6bb465" style="animation-play-state:paused" ></path>
<path d="M 25 678 L 1 766 L 134 764 Z" stroke="#78c063" fill="#78c063" style="animation-play-state:paused" ></path>
<path d="M 1433 670 L 1335 550 L 1315 653 Z" stroke="#925ea4" fill="#925ea4" style="animation-play-state:paused" ></path>
<path d="M 1506 365 L 1426 364 L 1509 456 Z" stroke="#6998ef" fill="#6998ef" style="animation-play-state:paused" ></path>
<path d="M 1405 443 L 1426 364 L 1335 369 Z" stroke="#519ff4" fill="#519ff4" style="animation-play-state:paused" ></path>
<path d="M 1426 364 L 1412 252 L 1335 369 Z" stroke="#00b8f3" fill="#00b8f3" style="animation-play-state:paused" ></path>
<path d="M -83 248 L 34 282 L 32 163 Z" stroke="#4a7c60" fill="#4a7c60" style="animation-play-state:paused" ></path>
<path d="M 1311 -31 L 1215 -135 L 1214 -54 Z" stroke="#589d66" fill="#589d66" style="animation-play-state:paused" ></path>
<path d="M 1214 -54 L 1215 -135 L 1136 -113 Z" stroke="#529265" fill="#529265" style="animation-play-state:paused" ></path>
<path d="M 1136 -113 L 1215 -135 L 1018 -137 Z" stroke="#4d8663" fill="#4d8663" style="animation-play-state:paused" ></path>
<path d="M 1018 -137 L 1298 -133 L 611 -163 Z" stroke="#497a60" fill="#497a60" style="animation-play-state:paused" ></path>
<path d="M 1311 -31 L 1214 -54 L 1328 60 Z" stroke="#6ab365" fill="#6ab365" style="animation-play-state:paused" ></path>
<path d="M -164 576 L -66 577 L -63 470 Z" stroke="#589c66" fill="#589c66" style="animation-play-state:paused" ></path>
<path d="M -63 470 L -66 577 L 36 564 Z" stroke="#5fa666" fill="#5fa666" style="animation-play-state:paused" ></path>
<path d="M 1411 -47 L 1311 -31 L 1328 60 Z" stroke="#6db665" fill="#6db665" style="animation-play-state:paused" ></path>
<path d="M -98 140 L -83 248 L 32 163 Z" stroke="#466d5b" fill="#466d5b" style="animation-play-state:paused" ></path>
<path d="M -84 360 L -187 460 L -63 470 Z" stroke="#508d64" fill="#508d64" style="animation-play-state:paused" ></path>
<path d="M 1399 749 L 1433 670 L 1315 653 Z" stroke="#875295" fill="#875295" style="animation-play-state:paused" ></path>
<path d="M 1509 456 L 1426 364 L 1405 443 Z" stroke="#818ee6" fill="#818ee6" style="animation-play-state:paused" ></path>
<path d="M 1529 255 L 1433 174 L 1412 252 Z" stroke="#00d2bb" fill="#00d2bb" style="animation-play-state:paused" ></path>
<path d="M 1412 252 L 1433 174 L 1315 171 Z" stroke="#00d99c" fill="#00d99c" style="animation-play-state:paused" ></path>
<path d="M -66 577 L -74 667 L 36 564 Z" stroke="#63ab66" fill="#63ab66" style="animation-play-state:paused" ></path>
<path d="M 128 -42 L 10 -56 L 39 63 Z" stroke="#528659" fill="#528659" style="animation-play-state:paused" ></path>
<path d="M 39 63 L -98 140 L 32 163 Z" stroke="#47705b" fill="#47705b" style="animation-play-state:paused" ></path>
<path d="M 234 -120 L 113 -157 L 128 -42 Z" stroke="#5e9154" fill="#5e9154" style="animation-play-state:paused" ></path>
<path d="M 299 -132 L 113 -157 L 234 -120 Z" stroke="#619353" fill="#619353" style="animation-play-state:paused" ></path>
<path d="M 400 -149 L 113 -157 L 299 -132 Z" stroke="#5e9154" fill="#5e9154" style="animation-play-state:paused" ></path>
<path d="M 611 -163 L 113 -157 L 400 -149 Z" stroke="#578b57" fill="#578b57" style="animation-play-state:paused" ></path>
<path d="M -101 46 L -98 140 L 39 63 Z" stroke="#4c7e5a" fill="#4c7e5a" style="animation-play-state:paused" ></path>
<path d="M 1330 751 L 1399 749 L 1315 653 Z" stroke="#875295" fill="#875295" style="animation-play-state:paused" ></path>
<path d="M 16 -127 L 10 -56 L 128 -42 Z" stroke="#629452" fill="#629452" style="animation-play-state:paused" ></path>
<path d="M 1433 174 L 1427 70 L 1315 171 Z" stroke="#82de68" fill="#82de68" style="animation-play-state:paused" ></path>
<path d="M 1505 532 L 1405 443 L 1426 561 Z" stroke="#a26fba" fill="#a26fba" style="animation-play-state:paused" ></path>
<path d="M 1426 364 L 1506 365 L 1412 252 Z" stroke="#00b6f4" fill="#00b6f4" style="animation-play-state:paused" ></path>
<path d="M 1433 174 L 1515 145 L 1427 70 Z" stroke="#86de66" fill="#86de66" style="animation-play-state:paused" ></path>
<path d="M 1505 532 L 1426 561 L 1433 670 Z" stroke="#935fa5" fill="#935fa5" style="animation-play-state:paused" ></path>
<path d="M -75 -24 L -101 46 L 39 63 Z" stroke="#548858" fill="#548858" style="animation-play-state:paused" ></path>
<path d="M -161 265 L -84 360 L -83 248 Z" stroke="#49795f" fill="#49795f" style="animation-play-state:paused" ></path>
<path d="M -74 667 L -97 758 L 1 766 Z" stroke="#66af66" fill="#66af66" style="animation-play-state:paused" ></path>
<path d="M 1 766 L -172 758 L 134 764 Z" stroke="#6db765" fill="#6db765" style="animation-play-state:paused" ></path>
<path d="M -171 651 L -97 758 L -74 667 Z" stroke="#5da466" fill="#5da466" style="animation-play-state:paused" ></path>
<path d="M -171 651 L -74 667 L -66 577 Z" stroke="#5ca366" fill="#5ca366" style="animation-play-state:paused" ></path>
<path d="M 1522 652 L 1505 532 L 1433 670 Z" stroke="#8c579c" fill="#8c579c" style="animation-play-state:paused" ></path>
<path d="M 1505 532 L 1509 456 L 1405 443 Z" stroke="#a875c2" fill="#a875c2" style="animation-play-state:paused" ></path>
<path d="M 1403 -151 L 1298 -133 L 1311 -31 Z" stroke="#549665" fill="#549665" style="animation-play-state:paused" ></path>
<path d="M 1311 -31 L 1298 -133 L 1215 -135 Z" stroke="#549665" fill="#549665" style="animation-play-state:paused" ></path>
<path d="M 1215 -135 L 1298 -133 L 1018 -137 Z" stroke="#4d8763" fill="#4d8763" style="animation-play-state:paused" ></path>
<path d="M 611 -163 L 1497 -155 L 113 -157 Z" stroke="#476f5b" fill="#476f5b" style="animation-play-state:paused" ></path>
<path d="M 113 -157 L 16 -127 L 128 -42 Z" stroke="#69984f" fill="#69984f" style="animation-play-state:paused" ></path>
<path d="M 10 -56 L -75 -24 L 39 63 Z" stroke="#578b56" fill="#578b56" style="animation-play-state:paused" ></path>
<path d="M -161 265 L -83 248 L -170 156 Z" stroke="#466d5a" fill="#466d5a" style="animation-play-state:paused" ></path>
<path d="M -161 265 L -174 367 L -84 360 Z" stroke="#497b60" fill="#497b60" style="animation-play-state:paused" ></path>
<path d="M -170 156 L -83 248 L -98 140 Z" stroke="#47725b" fill="#47725b" style="animation-play-state:paused" ></path>
<path d="M 1506 365 L 1529 255 L 1412 252 Z" stroke="#00c1e8" fill="#00c1e8" style="animation-play-state:paused" ></path>
<path d="M 1619 366 L 1529 255 L 1506 365 Z" stroke="#00b1f6" fill="#00b1f6" style="animation-play-state:paused" ></path>
<path d="M -81 -139 L -75 -24 L 10 -56 Z" stroke="#719d4c" fill="#719d4c" style="animation-play-state:paused" ></path>
<path d="M -101 46 L -170 156 L -98 140 Z" stroke="#4e805a" fill="#4e805a" style="animation-play-state:paused" ></path>
<path d="M -255 378 L -187 460 L -174 367 Z" stroke="#497c60" fill="#497c60" style="animation-play-state:paused" ></path>
<path d="M -174 367 L -187 460 L -84 360 Z" stroke="#4c8362" fill="#4c8362" style="animation-play-state:paused" ></path>
<path d="M -187 460 L -164 576 L -63 470 Z" stroke="#529265" fill="#529265" style="animation-play-state:paused" ></path>
<path d="M 1517 37 L 1411 -47 L 1427 70 Z" stroke="#79c163" fill="#79c163" style="animation-play-state:paused" ></path>
<path d="M 1427 70 L 1411 -47 L 1328 60 Z" stroke="#7ac263" fill="#7ac263" style="animation-play-state:paused" ></path>
<path d="M 1529 255 L 1515 145 L 1433 174 Z" stroke="#00d89e" fill="#00d89e" style="animation-play-state:paused" ></path>
<path d="M 1526 744 L 1522 652 L 1433 670 Z" stroke="#7f4a8b" fill="#7f4a8b" style="animation-play-state:paused" ></path>
<path d="M 1623 450 L 1619 366 L 1509 456 Z" stroke="#9286dc" fill="#9286dc" style="animation-play-state:paused" ></path>
<path d="M 1509 456 L 1619 366 L 1506 365 Z" stroke="#7295ec" fill="#7295ec" style="animation-play-state:paused" ></path>
<path d="M -258 579 L -171 651 L -164 576 Z" stroke="#529265" fill="#529265" style="animation-play-state:paused" ></path>
<path d="M -164 576 L -171 651 L -66 577 Z" stroke="#589c66" fill="#589c66" style="animation-play-state:paused" ></path>
<path d="M -189 63 L -170 156 L -101 46 Z" stroke="#548858" fill="#548858" style="animation-play-state:paused" ></path>
<path d="M -161 265 L -255 378 L -174 367 Z" stroke="#48745d" fill="#48745d" style="animation-play-state:paused" ></path>
<path d="M 1594 161 L 1517 37 L 1515 145 Z" stroke="#95de5e" fill="#95de5e" style="animation-play-state:paused" ></path>
<path d="M 1515 145 L 1517 37 L 1427 70 Z" stroke="#94d65c" fill="#94d65c" style="animation-play-state:paused" ></path>
<path d="M 16 -127 L -81 -139 L 10 -56 Z" stroke="#78a149" fill="#78a149" style="animation-play-state:paused" ></path>
<path d="M -158 -32 L -189 63 L -101 46 Z" stroke="#629452" fill="#629452" style="animation-play-state:paused" ></path>
<path d="M -187 -143 L -81 -139 L 16 -127 Z" stroke="#92ab3e" fill="#92ab3e" style="animation-play-state:paused" ></path>
<path d="M 1330 751 L 1526 744 L 1399 749 Z" stroke="#7e4989" fill="#7e4989" style="animation-play-state:paused" ></path>
<path d="M 1399 749 L 1526 744 L 1433 670 Z" stroke="#7e4889" fill="#7e4889" style="animation-play-state:paused" ></path>
<path d="M 1608 768 L 1526 744 L 1330 751 Z" stroke="#774280" fill="#774280" style="animation-play-state:paused" ></path>
<path d="M 1411 -47 L 1403 -151 L 1311 -31 Z" stroke="#5ba066" fill="#5ba066" style="animation-play-state:paused" ></path>
<path d="M 1497 -155 L 1403 -151 L 1411 -47 Z" stroke="#539465" fill="#539465" style="animation-play-state:paused" ></path>
<path d="M -171 651 L -172 758 L -97 758 Z" stroke="#5ba066" fill="#5ba066" style="animation-play-state:paused" ></path>
<path d="M -97 758 L -172 758 L 1 766 Z" stroke="#62aa66" fill="#62aa66" style="animation-play-state:paused" ></path>
<path d="M 134 764 L -172 758 L 240 783 Z" stroke="#7bc362" fill="#7bc362" style="animation-play-state:paused" ></path>
<path d="M 240 783 L -172 758 L 819 770 Z" stroke="#79de6c" fill="#79de6c" style="animation-play-state:paused" ></path>
<path d="M -158 -32 L -101 46 L -75 -24 Z" stroke="#649551" fill="#649551" style="animation-play-state:paused" ></path>
<path d="M -286 238 L -255 378 L -161 265 Z" stroke="#476e5b" fill="#476e5b" style="animation-play-state:paused" ></path>
<path d="M 1509 456 L 1505 532 L 1626 567 Z" stroke="#9e6ab3" fill="#9e6ab3" style="animation-play-state:paused" ></path>
<path d="M 1623 450 L 1509 456 L 1626 567 Z" stroke="#a36fba" fill="#a36fba" style="animation-play-state:paused" ></path>
<path d="M 1529 255 L 1594 161 L 1515 145 Z" stroke="#00d99e" fill="#00d99e" style="animation-play-state:paused" ></path>
<path d="M -286 238 L -161 265 L -170 156 Z" stroke="#49775b" fill="#49775b" style="animation-play-state:paused" ></path>
<path d="M -187 460 L -258 579 L -164 576 Z" stroke="#4f8c64" fill="#4f8c64" style="animation-play-state:paused" ></path>
<path d="M -171 651 L -270 661 L -172 758 Z" stroke="#549665" fill="#549665" style="animation-play-state:paused" ></path>
<path d="M 1626 567 L 1505 532 L 1522 652 Z" stroke="#905ca1" fill="#905ca1" style="animation-play-state:paused" ></path>
<path d="M -81 -139 L -158 -32 L -75 -24 Z" stroke="#78a049" fill="#78a049" style="animation-play-state:paused" ></path>
<path d="M 1622 640 L 1626 567 L 1522 652 Z" stroke="#885396" fill="#885396" style="animation-play-state:paused" ></path>
<path d="M 1594 41 L 1507 -43 L 1517 37 Z" stroke="#78c063" fill="#78c063" style="animation-play-state:paused" ></path>
<path d="M 1517 37 L 1507 -43 L 1411 -47 Z" stroke="#6db665" fill="#6db665" style="animation-play-state:paused" ></path>
<path d="M -255 378 L -297 463 L -187 460 Z" stroke="#497a5f" fill="#497a5f" style="animation-play-state:paused" ></path>
<path d="M -297 463 L -258 579 L -187 460 Z" stroke="#4b8162" fill="#4b8162" style="animation-play-state:paused" ></path>
<path d="M 1623 450 L 1632 281 L 1619 366 Z" stroke="#4ea0f4" fill="#4ea0f4" style="animation-play-state:paused" ></path>
<path d="M 1619 366 L 1632 281 L 1529 255 Z" stroke="#00bbf0" fill="#00bbf0" style="animation-play-state:paused" ></path>
<path d="M 1608 768 L 1632 281 L 1623 450 Z" stroke="#a06db7" fill="#a06db7" style="animation-play-state:paused" ></path>
<path d="M 1632 281 L 1594 161 L 1529 255 Z" stroke="#00cfc7" fill="#00cfc7" style="animation-play-state:paused" ></path>
<path d="M 1608 768 L 1622 640 L 1522 652 Z" stroke="#7b4685" fill="#7b4685" style="animation-play-state:paused" ></path>
<path d="M -301 162 L -286 238 L -170 156 Z" stroke="#508359" fill="#508359" style="animation-play-state:paused" ></path>
<path d="M -255 378 L -286 238 L -297 463 Z" stroke="#466b5a" fill="#466b5a" style="animation-play-state:paused" ></path>
<path d="M -301 162 L -170 156 L -263 70 Z" stroke="#588b56" fill="#588b56" style="animation-play-state:paused" ></path>
<path d="M -266 748 L -270 661 L -258 579 Z" stroke="#4f8b64" fill="#4f8b64" style="animation-play-state:paused" ></path>
<path d="M -258 579 L -270 661 L -171 651 Z" stroke="#508e64" fill="#508e64" style="animation-play-state:paused" ></path>
<path d="M 1625 -13 L 1594 41 L 1594 161 Z" stroke="#8dd15e" fill="#8dd15e" style="animation-play-state:paused" ></path>
<path d="M 1594 161 L 1594 41 L 1517 37 Z" stroke="#94d65c" fill="#94d65c" style="animation-play-state:paused" ></path>
<path d="M -263 70 L -170 156 L -189 63 Z" stroke="#598d56" fill="#598d56" style="animation-play-state:paused" ></path>
<path d="M 1507 -43 L 1497 -155 L 1411 -47 Z" stroke="#5ba166" fill="#5ba166" style="animation-play-state:paused" ></path>
<path d="M 1403 -151 L 1497 -155 L 1298 -133 Z" stroke="#4e8a64" fill="#4e8a64" style="animation-play-state:paused" ></path>
<path d="M 1298 -133 L 1497 -155 L 611 -163 Z" stroke="#4b8061" fill="#4b8061" style="animation-play-state:paused" ></path>
<path d="M 1629 -141 L 1497 -155 L 1507 -43 Z" stroke="#559866" fill="#559866" style="animation-play-state:paused" ></path>
<path d="M 819 770 L 1608 768 L 1330 751 Z" stroke="#8d589d" fill="#8d589d" style="animation-play-state:paused" ></path>
<path d="M 1526 744 L 1608 768 L 1522 652 Z" stroke="#76417f" fill="#76417f" style="animation-play-state:paused" ></path>
<path d="M 1622 640 L 1608 768 L 1626 567 Z" stroke="#7f4a8b" fill="#7f4a8b" style="animation-play-state:paused" ></path>
<path d="M 1626 567 L 1608 768 L 1623 450 Z" stroke="#8c589c" fill="#8c589c" style="animation-play-state:paused" ></path>
<path d="M -292 -27 L -263 70 L -189 63 Z" stroke="#709c4c" fill="#709c4c" style="animation-play-state:paused" ></path>
<path d="M -292 -27 L -189 63 L -158 -32 Z" stroke="#749f4b" fill="#749f4b" style="animation-play-state:paused" ></path>
<path d="M 113 -157 L -187 -143 L 16 -127 Z" stroke="#87a742" fill="#87a742" style="animation-play-state:paused" ></path>
<path d="M -81 -139 L -187 -143 L -158 -32 Z" stroke="#8faa3f" fill="#8faa3f" style="animation-play-state:paused" ></path>
<path d="M -270 661 L -266 748 L -172 758 Z" stroke="#529265" fill="#529265" style="animation-play-state:paused" ></path>
<path d="M -297 463 L -266 748 L -258 579 Z" stroke="#4d8563" fill="#4d8563" style="animation-play-state:paused" ></path>
<path d="M -286 238 L -266 748 L -297 463 Z" stroke="#497a60" fill="#497a60" style="animation-play-state:paused" ></path>
<path d="M 1632 281 L 1625 -13 L 1594 161 Z" stroke="#61dd78" fill="#61dd78" style="animation-play-state:paused" ></path>
<path d="M 1594 41 L 1625 -13 L 1507 -43 Z" stroke="#72bc64" fill="#72bc64" style="animation-play-state:paused" ></path>
<path d="M -187 -143 L -292 -27 L -158 -32 Z" stroke="#8eaa40" fill="#8eaa40" style="animation-play-state:paused" ></path>
<path d="M -263 70 L -292 -27 L -301 162 Z" stroke="#6d9a4e" fill="#6d9a4e" style="animation-play-state:paused" ></path>
<path d="M -301 162 L -281 -137 L -286 238 Z" stroke="#689850" fill="#689850" style="animation-play-state:paused" ></path>
<path d="M 1625 -13 L 1629 -141 L 1507 -43 Z" stroke="#60a866" fill="#60a866" style="animation-play-state:paused" ></path>
<path d="M 113 -157 L -281 -137 L -187 -143 Z" stroke="#9daf39" fill="#9daf39" style="animation-play-state:paused" ></path>
<path d="M -187 -143 L -281 -137 L -292 -27 Z" stroke="#a8b236" fill="#a8b236" style="animation-play-state:paused" ></path>
<path d="M -292 -27 L -281 -137 L -301 162 Z" stroke="#85a644" fill="#85a644" style="animation-play-state:paused" ></path></g>
<style type="text/css" style="animation-play-state:paused" >#bk-0.8279893624814776 path { stroke-width: 1 }</style></g></svg>